<?xml version="1.0" encoding="UTF-8" standalone="no"?>
<svg
   width="60mm"
   height="60mm"
   viewBox="0 0 60 60"
   version="1.1"
   id="svg1"
   xmlns="http://www.w3.org/2000/svg"
   xmlns:svg="http://www.w3.org/2000/svg">
  <sodipodi:namedview
     id="namedview1"
     pagecolor="#ffffff"
     bordercolor="#666666"
     borderopacity="1.0" />
  <defs
     id="defs1" />
  <g
     id="layer1"
     transform="translate(-75.116925,-131.13632)">
    <path
       d="m 116.58311,154.12094 c 0.47625,-1.00542 0.79375,-2.06375 0.97896,-3.14854 3.09562,1.5875 4.49791,2.77812 4.7625,3.25437 -0.52917,0.26459 -2.46063,0.37042 -5.74146,-0.10583 z m -12.83229,-9.65729 c -2.9898,0.9525 -5.847298,2.01083 -8.360838,3.06917 0.13229,-4.5773 3.25438,-8.255 7.064378,-8.255 2.06375,0 3.94229,1.08479 5.23875,2.80458 0.23812,0.3175 0.44979,0.68792 0.66146,1.05833 -2.56646,0.68792 -4.41855,1.27 -4.60375,1.32292 z m -15.848548,-1.21708 c 0.50271,-0.26459 2.32834,-0.39688 5.76792,0.10583 -0.47625,1.00542 -0.82021,2.06375 -1.00542,3.14854 -2.98979,-1.53458 -4.49791,-2.72521 -4.7625,-3.25437 z m 8.49313,14.68437 c 0.84667,0.82021 1.79917,1.48167 2.8575,2.03729 l 1.428748,10.90084 c -0.0529,-0.0265 -0.10583,-0.0529 -0.18521,-0.0794 -0.18521,-0.0794 -0.39687,-0.15875 -0.582078,-0.23813 v 0 c -0.10584,-0.0265 -0.21167,-0.0794 -0.3175,-0.10583 l -3.57188,-12.30313 c -0.10583,-0.21166 0.18521,-0.37041 0.37042,-0.21166 z m 6.402918,5.79438 0.0529,0.23812 c 0.0529,0.21167 0.23813,0.47625 0.68792,0.47625 h 3.12208 c 0.42334,0 0.635,-0.26458 0.68792,-0.47625 l 0.0529,-0.23812 c 0.26458,-1.16417 0.92604,-2.46063 2.43416,-3.22792 l -1.27,9.73667 c -2.35479,-1.56105 -4.49791,-1.79917 -5.26521,-1.82563 h -0.0265 c -0.15875,0 -0.26459,0.13229 -0.23813,0.29104 l 0.60854,4.18042 c 0,0 -0.0265,0.0265 -0.0265,0 -0.55562,-0.52917 -1.1377,-0.97896 -1.79916,-1.37583 v 0 l -0.0794,-0.0529 -1.42875,-10.98021 c 1.56104,0.82021 2.2225,2.11666 2.48709,3.25437 z m 11.03312,-5.79438 c 0.18521,-0.15875 0.44979,0 0.39688,0.23813 l -3.91584,13.44083 c -0.18521,-0.18521 -0.39687,-0.37042 -0.58208,-0.52917 v 0 0 c -0.0529,-0.0529 -0.10583,-0.0794 -0.15875,-0.13229 l 1.42875,-10.98021 c 1.00542,-0.55562 1.98437,-1.24354 2.83104,-2.03729 z m -4.10104,14.89604 c -0.66146,1.56104 -2.38125,2.69875 -4.20688,3.06917 -0.0794,0.0265 -0.13229,0 -0.15875,-0.0794 l -0.87312,-5.92667 c 0,-0.0794 0.0529,-0.13229 0.13229,-0.10583 1.37583,0.26458 3.73063,1.50812 5.02708,2.80458 0.10584,0.10584 0.0794,0.21167 0.0794,0.23813 z m -2.43417,7.32896 -4.36562,0.23813 -0.39688,-3.09563 0.50271,-0.0529 1.24354,-0.13229 h 0.0265 l 0.10583,0.82021 c 0.0265,0.13229 0.1323,0.21166 0.26459,0.21166 h 0.0265 l 2.51354,-0.23812 v 0 l 0.39687,-0.0265 z m -8.810618,-3.65125 c -0.0529,0 -0.0794,-0.0265 -0.0794,-0.0529 l -0.92604,-5.15937 c 0,-0.0529 0.0265,-0.10584 0.0794,-0.0794 2.619368,0.3175 5.212288,1.95791 6.429368,3.9952 0.0265,0.0529 0.0529,0.10584 0.0529,0.15875 l 0.0794,0.55563 c 0,0.0265 -0.0265,0.0529 -0.0529,0.0529 z m 19.261658,-27.6225 v -0.13229 -0.18521 c 4.81542,-2.32833 6.985,-4.31271 6.4823,-5.92667 -0.29105,-0.9525 -1.42875,-1.4552 -3.38667,-1.56104 h -0.60854 c -1.40229,0 -3.04271,0.18521 -4.7625,0.47625 -2.27542,-3.30729 -6.08542,-5.45041 -10.39813,-5.45041 -4.31271,0 -8.122708,2.16958 -10.398118,5.45041 -5.26521,-0.87312 -8.20209,-0.52916 -8.70479,1.08479 -0.29105,0.92605 -0.0794,2.46063 5.05354,5.2123 0.44979,0.23812 0.92604,0.47625 1.42875,0.71437 v 0.18521 0.13229 c -0.50271,0.23813 -0.97896,0.47625 -1.40229,0.71438 -5.13292,2.7252 -5.34459,4.28625 -5.05355,5.21229 0.50271,1.56104 3.28084,1.95791 8.28146,1.16416 l 4.1275,14.15521 c -0.18521,-0.0265 -0.34396,-0.0794 -0.52916,-0.10583 v 0 c -0.55563,-0.0794 -1.11125,-0.10583 -1.64042,-0.0794 -0.13229,0 -0.21167,0.10583 -0.21167,0.23812 l 1.34938,7.40834 c 0.0265,0.10583 0.13229,0.18521 0.23812,0.15875 l 2.910418,-0.29104 h 0.0529 l 0.87312,2.98979 h -0.23812 c -0.4498,0.0265 -0.58209,-0.0794 -0.84667,-0.26459 -0.29104,-0.21166 -0.370418,-0.39687 -0.767288,-0.39687 l -2.67229,0.10583 c -0.1323,0 -0.21167,0.10584 -0.21167,0.23813 0,1.05833 0.52917,4.52437 2.72521,4.63021 h 0.634998 c 0.71437,1.61395 2.19604,1.42875 2.59291,1.37583 1.34938,-0.13229 8.41375,-2.38125 9.10167,-2.88396 0.71438,-0.52917 1.42875,-2.32833 1.42875,-2.32833 0,0 2.11667,-0.71438 3.25438,-1.05834 0.15875,-0.0529 0.10583,-0.26458 -0.0529,-0.26458 l -7.48771,0.39688 0.71438,-2.40771 0.55562,-0.0529 3.67771,-0.37042 c 0.10583,0 0.18521,-0.13229 0.13229,-0.23812 -0.79375,-1.74625 -1.66687,-3.12209 -2.59292,-4.23334 -0.0794,-0.10583 -0.15875,-0.18521 -0.26458,-0.29104 l 4.36563,-14.97542 c -3.36021,-0.5027 -7.06438,-1.4552 -9.60438,-2.16958 -1.03187,0.68792 -2.19604,1.11125 -3.46604,1.11125 -2.645828,0 -4.947708,-1.77271 -6.138328,-4.36562 l -1.34938,-0.55563 c -0.66146,0.29104 -1.32292,0.60854 -1.95792,0.92604 0.18521,0.58209 0.39688,1.13771 0.635,1.66688 -3.41312,0.50271 -5.2652,0.34396 -5.74145,0.10583 0.5027,-1.00542 5.55625,-4.41854 16.457078,-7.88458 10.90083,-3.46604 16.98625,-3.59834 17.99167,-3.06917 -0.26459,0.47625 -1.66688,1.66688 -4.7625,3.25438 -0.0794,-0.52917 -0.21167,-1.05834 -0.37042,-1.56105 -2.06375,0.26459 -4.68313,0.7673 -7.77875,1.5875 0.0529,0.42334 0.0794,0.87313 0.0794,1.32292 0,1.64042 -0.39687,3.175 -1.05833,4.49792 -1.37583,-0.37042 -2.75167,-0.79375 -4.10104,-1.21709 -1.53458,-0.47625 -3.04271,-1.00541 -4.550828,-1.56104 -0.89959,0.34396 -1.79917,0.68792 -2.6723,1.03188 2.06375,0.82021 4.312708,1.64041 6.667498,2.38125 0.4498,0.13229 10.71563,3.38666 16.51,3.38666 h 0.60855 c 1.93145,-0.0794 3.06916,-0.60854 3.38666,-1.56104 0.47625,-1.53458 -1.71979,-3.54541 -6.53521,-5.87375 z"
       style="clip-rule:evenodd;fill-rule:evenodd;stroke-width:0.264583"
       id="path1" />
  </g>
</svg>
