<?xml version="1.0" encoding="UTF-8" standalone="no"?>
<!-- Created with Inkscape (http://www.inkscape.org/) -->

<svg
   width="633.84003"
   height="667.1084"
   viewBox="0 0 12.6768 13.342168"
   version="1.1"
   id="svg1"
   inkscape:version="1.4 (e7c3feb100, 2024-10-09)"
   sodipodi:docname="open-systems-logo.svg"
   xmlns:inkscape="http://www.inkscape.org/namespaces/inkscape"
   xmlns:sodipodi="http://sodipodi.sourceforge.net/DTD/sodipodi-0.dtd"
   xmlns="http://www.w3.org/2000/svg"
   xmlns:svg="http://www.w3.org/2000/svg">
  <sodipodi:namedview
     id="namedview1"
     pagecolor="#ffffff"
     bordercolor="#000000"
     borderopacity="0.25"
     inkscape:showpageshadow="2"
     inkscape:pageopacity="0.0"
     inkscape:pagecheckerboard="0"
     inkscape:deskcolor="#d1d1d1"
     inkscape:document-units="mm"
     inkscape:zoom="0.65566779"
     inkscape:cx="-58.718761"
     inkscape:cy="486.52688"
     inkscape:window-width="2149"
     inkscape:window-height="1357"
     inkscape:window-x="0"
     inkscape:window-y="0"
     inkscape:window-maximized="0"
     inkscape:current-layer="layer1" />
  <defs
     id="defs1" />
  <g
     inkscape:label="Layer 1"
     inkscape:groupmode="layer"
     id="layer1"
     transform="translate(-845.87292,4939.5062)">
    <path
       d="m 857.79046,-4936.7915 c -0.0168,-0.1699 -0.0843,-0.323 -0.18528,-0.459 -0.16863,-0.2039 -0.33708,-0.391 -0.52254,-0.561 -0.37073,-0.391 -0.80878,-0.7141 -1.31431,-0.9521 -2.52767,-1.343 -5.84746,-0.8329 -7.93708,1.2752 -2.72977,2.737 -2.59497,7.3443 0.33708,9.8604 2.7636,2.38 7.22926,1.8021 9.20091,-1.3261 1.29749,-2.074 1.65139,-5.5253 0.42122,-7.8374 m -3.25231,7.3104 c -1.88733,1.53 -4.60045,0.918 -5.77997,-1.156 -1.11221,-1.9552 -0.38757,-4.4544 1.3818,-5.7294 1.3818,-1.0031 2.8984,-1.0879 4.38134,-0.6969 0.0168,0.017 0.0337,0.034 0.0505,0.034 2.59515,1.2241 1.93799,5.9333 -0.0337,7.5484"
       id="Fill-27"
       fill="#83a840"
       style="stroke-width:0.264583" />
  </g>
</svg>
