<?xml version="1.0" encoding="UTF-8" standalone="no"?>
<!-- Generator: Adobe Illustrator 26.0.3, SVG Export Plug-In . SVG Version: 6.00 Build 0)  -->

<svg
   version="1.0"
   id="Layer_1"
   x="0px"
   y="0px"
   viewBox="0 0 241.55733 276.74747"
   xml:space="preserve"
   sodipodi:docname="jaeger.svg"
   width="241.55733"
   height="276.74747"
   inkscape:version="1.4.2 (ebf0e940d0, 2025-05-08)"
   xmlns:inkscape="http://www.inkscape.org/namespaces/inkscape"
   xmlns:sodipodi="http://sodipodi.sourceforge.net/DTD/sodipodi-0.dtd"
   xmlns="http://www.w3.org/2000/svg"
   xmlns:svg="http://www.w3.org/2000/svg"><defs
   id="defs28" /><sodipodi:namedview
   id="namedview28"
   pagecolor="#ffffff"
   bordercolor="#000000"
   borderopacity="0.25"
   inkscape:showpageshadow="2"
   inkscape:pageopacity="0.0"
   inkscape:pagecheckerboard="0"
   inkscape:deskcolor="#d1d1d1"
   inkscape:zoom="1.5887372"
   inkscape:cx="120.22127"
   inkscape:cy="164.91085"
   inkscape:window-width="2092"
   inkscape:window-height="1349"
   inkscape:window-x="0"
   inkscape:window-y="0"
   inkscape:window-maximized="0"
   inkscape:current-layer="Layer_1" />
<style
   type="text/css"
   id="style1">
	.st0{fill:none;}
	.st1{fill:#221F1F;}
	.st2{fill:#67CFE3;}
	.st3{fill:#DFCAA3;}
	.st4{fill:#648C1A;}
</style>
<path
   class="st0"
   d="m 134.55732,106.58247 c -13,0 -23.6,10.6 -23.6,23.6 0,13 10.6,23.6 23.6,23.6 13,0 23.6,-10.6 23.6,-23.6 0,-13 -10.6,-23.6 -23.6,-23.6 z m -3.2,38.9 c -4.1,0 -7.4,-3.3 -7.4,-7.4 0,-4.1 3.3,-7.4 7.4,-7.4 v 0 c 4.1,0 7.4,3.3 7.4,7.4 0,4.1 -3.3,7.4 -7.4,7.4 z m -1,17.1 c -3.8,-1.6 -8.8,-2.4 -14.9,-2.4 h -2.7 c -1.6,-2.9 -6.6,-4.5 -12.3,-3.8 5.7,-0.7 10.7,0.9 12.3,3.8 0.3,0.6 0.5,1.3 0.5,2 0,3.5 -4.5,7 -10.5,8.2 -0.1,0 -0.3,0.1 -0.4,0.1 l -0.4,0.1 c -6.5,1.1 -12.3,-0.8 -13.5,-4.3 l -2.2,0.7 c -1.4,0.5 -13.3,4.7 -14.4,13.1 -0.4,2.7 0.4,5.4 2.2,7.4 2.1,2.5 5.7,3.9 9.4,3.9 2,0 3.9,-0.4 5.4,-1.3 1,-0.5 2,-1.2 3.1,-1.8 3.7,-2.3 8.3,-5.2 13.9,-5.9 0.5,-0.1 1.3,-0.1 2.5,-0.1 1.2,0 2.7,0 4.3,0.1 1.8,0 3.9,0.1 5.9,0.1 5.9,0 9.4,-0.5 11.8,-1.5 5.1,-2.3 7.6,-6.7 6.8,-11.9 -0.6,-2.7 -3,-4.9 -6.8,-6.5 z m -1.6,15 c -2.2,1 -6.2,1.2 -10.4,1.2 -3.7,0 -7.4,-0.2 -10.2,-0.2 -1.2,0 -2.2,0 -2.9,0.1 -8.1,1.1 -14.1,6 -18.2,8.2 -1.1,0.6 -2.4,0.9 -3.7,0.8 -4.1,0 -8.6,-2.5 -8,-7.2 0.9,-6.4 12,-10.1 12,-10.1 1.4,1.8 3.9,3.8 10,3.8 1.6,0 3.5,-0.1 5.7,-0.5 11.6,-1.7 12.3,-10 12.3,-10 12.6,0.1 17.6,3.7 18,5.8 0.4,2 0.4,5.8 -4.6,8.1 z"
   id="path1" />
<path
   class="st0"
   d="m 101.65732,186.18247 c -3,1.2 -5.7,2.8 -8,4.3 l -0.1,0.1 c 0.5,2.5 2.3,8.2 7.3,6.7 2.6,-0.8 2.6,-3.9 2.1,-6.8 -0.3,-1.5 -0.7,-2.9 -1.3,-4.3 z m 13,-1.3 c -0.5,0 -0.9,0 -1.4,0 -1.6,0 -3,-0.1 -4.3,-0.1 -1.3,0 -2,0 -2.3,0.1 -0.6,0.1 -1.2,0.2 -1.8,0.3 0.2,1.3 0.6,3.4 1.2,5.3 0.7,2.2 1.6,4.3 2.8,4.8 1.3,0.5 6.3,0.9 6.2,-4.8 v -0.7 c -0.1,-1.7 -0.2,-3.3 -0.4,-4.9 z m -55.4,-21.9 c -4.1,0 -7.4,-3.3 -7.4,-7.4 0,-4.1 3.3,-7.4 7.4,-7.4 4.1,0 7.4,3.3 7.4,7.4 0.1,4.1 -3.3,7.4 -7.4,7.4 z"
   id="path2" />
<path
   class="st1"
   d="m 60.35732,249.88247 c -4,0.9 -15.9,7.4 -26.2,9.4 -10.3,2 -19.2,3 -22.3,4.2 -3.1000003,1.2 -5.5000003,3.5 0.6,5.8 6.1,2.3 35.8,3.1 38.4,0 2.7,-3.1 -1.8,-4.5 -8.3,-4.4 -4.6,0.1 -4,-1.6 -4,-1.7 0,0 0.3,-2 7.4,-3 7.1,-1 38.4,-3.9 37.9,-7.3 -0.6,-3.5 -19.4,-3.9 -23.5,-3 z"
   id="path3" />
<ellipse
   transform="rotate(-12.28084)"
   class="st1"
   cx="-19.254576"
   cy="276.80048"
   rx="6.0998955"
   ry="1.7999691"
   id="ellipse3"
   style="stroke-width:0.999983" />
<ellipse
   transform="rotate(-4.5512142)"
   class="st1"
   cx="4.0422006"
   cy="274.95175"
   rx="6.4996948"
   ry="1.6999202"
   id="ellipse4"
   style="stroke-width:0.999953" />
<ellipse
   transform="rotate(-7.7589726)"
   class="st1"
   cx="-22.450348"
   cy="271.82095"
   rx="4.2998061"
   ry="1.3999367"
   id="ellipse5"
   style="stroke-width:0.999955" />
<ellipse
   transform="rotate(-8.2621817)"
   class="st1"
   cx="-32.951962"
   cy="269.12378"
   rx="4.1999111"
   ry="1.0999769"
   id="ellipse6"
   style="stroke-width:0.999979" />
<ellipse
   transform="rotate(-8.2621817)"
   class="st1"
   cx="-34.491821"
   cy="266.47421"
   rx="4.1999111"
   ry="1.0999769"
   id="ellipse7"
   style="stroke-width:0.999979" />
<ellipse
   transform="rotate(-8.2621817)"
   class="st1"
   cx="-34.607925"
   cy="263.83389"
   rx="3.5999241"
   ry="0.9999789"
   id="ellipse8"
   style="stroke-width:0.999979" />
<path
   class="st1"
   d="m 122.05732,253.08247 c -7,0.3 -23,-0.5 -25.2,3.2 -2.2,3.7 6.5,5.1 20.1,3.9 13.6,-1.2 32.9,-2.7 33.7,-6.8 0.8,-4.1 -3.6,-3.3 -4,-6 -0.5,-2.6 4.9,-2.6 5.9,-6.6 1,-3.9 -7.2,-3.5 -14.4,-3.5 -7.3,0 -19.4,0.7 -20.6,4.5 -1.2,3.8 5.5,3.8 10.3,4.7 4.7,0.9 3.4,2.6 3.4,2.6 -0.3,2.7 -2.2,3.7 -9.2,4 z"
   id="path8" />
<ellipse
   class="st1"
   cx="103.25732"
   cy="263.28247"
   rx="6.0999999"
   ry="2"
   id="ellipse9" />
<ellipse
   class="st1"
   cx="118.95733"
   cy="262.78247"
   rx="4.0999999"
   ry="1.8"
   id="ellipse10" />
<ellipse
   class="st1"
   cx="131.65732"
   cy="261.48245"
   rx="4.5"
   ry="1.5"
   id="ellipse11" />
<ellipse
   class="st1"
   cx="141.35733"
   cy="259.88245"
   rx="3.2"
   ry="1.6"
   id="ellipse12" />
<ellipse
   class="st1"
   cx="149.85733"
   cy="258.08246"
   rx="3.3"
   ry="1.5"
   id="ellipse13" />
<path
   class="st1"
   d="m 6.2573197,215.48247 c 0,2 4.3000003,3.8 11.9000003,5.5 -0.5,-4 -0.2,-7.9 0.3,-11 -7.8,1.7 -12.2000003,3.6 -12.2000003,5.5 z m 225.1000003,-5.1 c -0.9,2.5 -2.4,4.8 -4.4,6.7 -3.4,3.3 -6.5,5.2 -9.2,5.9 14.9,-2.1 23.8,-4.7 23.8,-7.5 0,-1.8 -3.7,-3.5 -10.2,-5.1 z"
   id="path13" />
<path
   class="st2"
   d="m 205.85732,206.28247 c -0.9,-6.9 -3.9,-10.1 -6.5,-12.8 -2.4,-2.6 -4.7,-5 -4,-9.4 0.7,-4.1 3.9,-6.6 9.3,-7.3 -3.2,-21.9 -8,-49.6 -14.1,-73.1 -3,-11.800003 -7.9,-20.000003 -14.3,-25.400003 -8.6,4.4 -17.4,8.4 -26.2,12.3 -7.2,3.1 -14.4,6.1 -21.6,8.9 -5.7,6.100003 -11.9,12.100003 -15.7,13.800003 -2.7,1.2 -5.1,1.7 -7.2,1.7 -4.5,0 -7.6,-2.3 -9.1,-4.3 -1.3,0.4 -2.7,0.7 -4,0.8 -1.1,0.1 -2.8,0.3 -4.8,0.4 0.8,2.1 0.5,4.5 -1,6.3 -1.7,2 -4.3,3 -8.1,3 -5.5,0 -13.3,-2.1 -23.7,-6.3 -1.4,-0.6 -2.8,-1.1 -4.2,-1.7 h -2.4 v 0 c -9.9,0 -17.7,-0.3 -23.8,-0.8 -6.7,13.8 -3.8,29.1 -1.3,41.8 2.3,12.1 10.5,33.7 18,52.3 2.8,6.9 5.5,13.3 7.8,18.7 20.4,1.8 46.5,2.9 75,2.9 33.9,0 64.5,-1.5 86,-4 -1.6,-6.5 -3.6,-15.4 -3.9,-17.7 z m -168.1,-59.1 c 0,-13 10.6,-23.6 23.6,-23.6 13,0 23.6,10.6 23.6,23.6 0,13 -10.6,23.6 -23.6,23.6 -13,0.1 -23.6,-10.5 -23.6,-23.6 z m 63.1,50 c -5,1.5 -6.8,-4.2 -7.3,-6.7 l 0.1,-0.1 c 2.3,-1.5 5,-3.1 8,-4.3 0.4,1 0.9,2.6 1.2,4.3 0.6,2.9 0.6,6.1 -2,6.8 z m 8.1,-2 c -1.2,-0.5 -2.2,-2.5 -2.8,-4.8 -0.5,-1.7 -0.9,-3.5 -1.2,-5.3 0.6,-0.1 1.2,-0.2 1.8,-0.3 0.3,0 0.9,-0.1 2.3,-0.1 1.2,0 2.7,0 4.3,0.1 h 1.4 c 0.1,1.1 0.3,2.6 0.4,4.9 v 0.7 c 0.1,5.7 -4.9,5.3 -6.2,4.8 z m 21.2,-14.3 c -2.4,1.1 -5.9,1.5 -11.8,1.5 -2,0 -4.1,-0.1 -5.9,-0.1 -1.6,0 -3.1,-0.1 -4.3,-0.1 -1.1,0 -2,0 -2.5,0.1 -5.6,0.7 -10.2,3.6 -13.9,5.9 -1.1,0.7 -2.1,1.3 -3.1,1.8 -1.7,0.9 -3.5,1.3 -5.4,1.3 -3.7,0 -7.3,-1.5 -9.4,-3.9 -1.8,-2 -2.6,-4.7 -2.2,-7.4 1.1,-8.4 13.1,-12.6 14.4,-13.1 l 2.2,-0.7 c -0.1,-0.2 -0.1,-0.4 -0.2,-0.7 -0.6,-3.9 4.4,-8 11.3,-9.1 0.3,0 0.6,-0.1 0.9,-0.1 5.7,-0.7 10.7,0.9 12.3,3.8 h 2.7 c 6.1,0 11.1,0.9 14.9,2.4 3.8,1.6 6.2,3.8 6.6,6.4 1.1,5.3 -1.5,9.7 -6.6,12 z m 4.4,-27.1 c -13,0 -23.6,-10.6 -23.6,-23.6 0,-13 10.6,-23.6 23.6,-23.6 v 0 c 13,0 23.6,10.6 23.6,23.6 0,13 -10.5,23.6 -23.6,23.6 z"
   id="path14" />
<path
   d="m 164.75732,50.682467 -0.2,-0.3 -0.2,-0.3 c -0.3,-0.4 -0.7,-0.7 -1.2,-0.9 h -0.1 v 0 l -0.2,-0.1 v 0 0 l -0.2,-0.1 -0.5,-0.2 c -0.3,-0.1 -0.7,-0.2 -1,-0.2 -0.3,-0.1 -0.7,-0.1 -1.1,-0.1 -0.4,0 -0.7,0 -1.1,0.1 -1.4,0.3 -2.7,0.9 -3.7,1.8 -1,0.8 -1.7,1.8 -2.3,2.7 -1.2,1.9 -1.9,3.8 -2.3,5.4 -0.4,1.6 -0.6,3 -0.7,4 0,0.5 0,0.9 -0.1,1.1 v 0.4 l 0.7,-1.3 c 0.5,-0.8 1.1,-2 1.9,-3.4 0.8,-1.4 1.8,-2.9 3,-4.4 0.6,-0.7 1.2,-1.4 1.9,-1.9 0.7,-0.5 1.4,-0.8 2.1,-1 0.2,0 0.4,0 0.5,0 0.2,0 0.4,0 0.5,0 0.2,0 0.4,0 0.6,0.1 l 0.5,0.1 0.1,0.1 v 0 0 c 0,0 0,0 0,0 v 0 0 0 c 0,0 0,0 0,0 0,0 0,0 0.1,0.1 0.1,0.2 0.2,0.5 0.2,0.9 0,0.8 0,1.7 -0.2,2.6 -0.1,0.9 -0.3,1.7 -0.5,2.5 -0.4,1.6 -0.7,2.9 -1,3.8 -0.2,0.9 -0.4,1.5 -0.4,1.5 0,0 0.4,-0.4 1,-1.2 0.6,-0.8 1.4,-1.9 2.3,-3.4 0.4,-0.7 0.8,-1.6 1.2,-2.5 0.4,-0.9 0.7,-2 0.8,-3.2 0.1,-0.7 0,-1.5 -0.3,-2.2 0.1,-0.1 0.1,-0.3 -0.1,-0.5 z"
   id="path15" />
<path
   d="m 161.85732,52.382467 v 0 0 0 z"
   id="path16" />
<path
   class="st1"
   d="m 18.35732,95.782467 h 0.3 c -0.1,-0.2 -0.2,-0.4 -0.3,-0.6 z m 2.9,-9.1 c 0.7,1.4 1.4,2.4 2,3.2 0.3,0.4 0.5,0.6 0.7,0.8 l 0.3,0.3 -0.3,-1.4 c -0.2,-0.9 -0.4,-2.1 -0.7,-3.5 -0.1,-0.7 -0.2,-1.5 -0.3,-2.2 -0.1,-0.7 0,-1.4 0.1,-2.2 0.1,-0.2 0.2,-0.5 0.3,-0.6 0.1,-0.1 0.2,-0.2 0.3,-0.2 h 0.1 0.2 c 0,0 0,0 0,0 0,0 0,0 -0.1,0 v 0 0 c 0,0 0.1,0 0.1,0 0.2,0.1 0.4,0.2 0.7,0.4 0.6,0.4 1.2,1.1 1.8,1.7 0.6,0.7 1.1,1.4 1.7,2.1 1.1,1.4 2,2.8 2.9,4 1,1.4 2,2.7 3,4 v -0.4 c 0,-0.2 -0.1,-0.6 -0.2,-1 -0.6,-2.9 -1.6,-5.8 -3,-8.4 -0.5,-0.9 -1,-1.8 -1.6,-2.6 -0.7,-0.9 -1.5,-1.8 -2.4,-2.5 -0.6,-0.4 -1.2,-0.8 -1.9,-1 -0.2,0 -0.4,-0.1 -0.6,-0.1 h -0.2 -0.2 c -0.3,0 -0.5,0 -0.8,0.1 h -0.2 -0.2 l -0.2,0.1 h -0.1 l -0.1,0.1 c -0.8,0.3 -1.4,0.9 -1.8,1.6 -0.4,0.6 -0.6,1.3 -0.6,2 -0.1,1.1 0,2.1 0.4,3.2 0.2,1 0.6,1.8 0.9,2.5 z"
   id="path17" />
<path
   class="st3"
   d="m 32.15732,231.68247 c 5.5,0 9.4,-3 12.2,-6.9 -4.6,-10.7 -9,-21.5 -13.2,-32.4 -1.3,1.1 -2.8,2.8 -4.5,5.4 -4.1,6.4 -7.5,21.2 -3.2,29 1.7,3.3 4.6,4.9 8.7,4.9 z m 195.4,-36.8 c -3.2,-8.4 -10.1,-14.4 -16.8,-14.5 h -0.2 c 0,0 -1.3,-0.2 -3,-0.2 -3.6,0 -8.1,0.8 -8.7,4.4 -0.4,2.6 0.7,3.9 3,6.3 2.7,2.8 6.4,6.7 7.5,14.8 1.3,9.3 3.5,14 6.7,14 1.5,0 4.2,-0.9 8.7,-5.2 5.7,-5.1 5.2,-13.5 2.8,-19.6 z"
   id="path18" />
<circle
   class="st1"
   cx="59.25732"
   cy="155.48247"
   r="7.4000001"
   id="circle18" />
<circle
   class="st1"
   cx="131.35733"
   cy="138.08247"
   r="7.4000001"
   id="circle19" />
<path
   class="st4"
   d="m 39.05732,72.382467 c 5.8,1.6 12.4,2.4 19.5,2.4 11.5,0 35.9,-2.2 70.1,-17.2 l 0.8,-0.3 c -0.1,-1.9 0.1,-3.8 0.5,-5.6 0.8,-3.5 2.3,-6.4 4.1,-8.3 -0.2,-0.9 -0.5,-1.9 -0.9,-2.8 -3.9,-2.1 -36.5,-14.2 -53.5,-14.2 -1.7,0 -3.2,0.1 -4.4,0.4 -15.1,3.1 -38,29.3 -38.8,33 -0.2,1.6 -0.2,6.6 0,12.1 0,-0.2 2.6,0.5 2.6,0.5 z m -0.3,37.200003 c -0.5,-0.1 -1,-0.2 -1.5,-0.2 -3.5,0.2 -6.5,-2.5 -6.7,-6 0,-0.1 0,-0.1 0,-0.2 -1.7,1 -3.4,2 -5,3.1 l -2.8,2 -2.1,-2.8 c -0.6,-0.8 -3.5,-4.8 -6.2,-9.900003 -5.0000003,2.4 -9.0000003,5.000003 -9.9000003,7.400003 -0.2,0.5 -0.1,0.7 0.1,1 0.7,1.2 5.6000003,4.9 34.1000003,5.6 z m 59.2,-8.1 c 2.5,-1.600003 5.7,-1.3 7.8,0.8 0.6,-0.1 1.1,-0.3 1.7,-0.5 3.1,-1.5 14.4,-13.500003 22.9,-23.800003 0.3,-0.4 0.6,-0.7 1,-1 -19.5,8.4 -46.9,17.7 -72.9,17.7 -4.2,0 -8.1,-0.2 -11.8,-0.7 l 0.6,1.7 -3.3,1.2 c 0,0 -0.6,0.2 -1.5,0.6 4.2,1 9.8,2.900003 17,5.800003 13,5.2 18,5.5 19.2,5.4 1.8,-0.9 3.9,-1 5.7,-0.1 2.5,-0.2 5.1,-0.3 7.6,-0.6 1.1,-0.1 2.1,-0.4 3.1,-0.6 -0.1,-2.4 1,-4.7 2.9,-5.9 z m 75.8,-38.600003 c -0.9,5.6 -2.8,11.8 -4,13.5 l -1.1,1.6 c 4.6,-2.2 9.1,-4.6 13.6,-7 13.5,-7.6 15.2,-10.9 15.4,-11.7 0.1,-0.5 0,-0.7 -0.1,-0.8 -0.1,-0.2 -1.1,-1.1 -5.4,-1.1 -4.7,0 -11.2,1.1 -18,2.5 -0.1,1 -0.3,2 -0.4,3 z m -5.3,15.2 -1.9,-0.2 c 0,0 -3.6,-0.3 -8.5,-0.3 -5,0 -11.7,0.3 -17.1,1.6 1,2.2 0.8,4.8 -0.8,6.8 -1.3,1.6 -3.6,4.3 -6.3,7.4 4.9,-2 9.8,-4.1 14.7,-6.2 7.2,-3.2 13.9,-6.2 19.9,-9.1 z"
   id="path19" />
<path
   class="st3"
   d="m 130.15732,60.882467 c -13.7,6 -43.7,17.5 -71.6,17.5 -7.1,0 -14,-0.7 -20.5,-2.5 0.7,1 1.3,2.1 2,3.3 2.4,4.2 4.2,8.4 5.1,10.9 4.4,0.7 8.8,1 13.2,0.9 16,0 41,-3.7 75.4,-19.1 0.5,-1.7 1.3,-3.8 2.1,-6.2 h -0.2 c -0.4,0 -0.7,0 -1.1,-0.1 -2,-0.5 -3.5,-2.2 -4.4,-4.7 z"
   id="path20" />
<path
   class="st2"
   d="m 18.65732,95.782467 c 2.5,4.400003 4.8,7.500003 4.8,7.500003 8.3,-5.700003 19.1,-9.900003 19.1,-9.900003 0,0 -0.3,-0.8 -0.8,-2.2 -0.8,-2.1 -1.7,-4.2 -2.7,-6.2 -0.4,-0.9 -0.9,-1.8 -1.4,-2.7 -0.8,-1.6 -1.8,-3.1 -2.8,-4.7 -3.3,-5 -7.6,-9.2 -12.3,-9.2 -1.5,0 -3,0.4 -4.6,1.4 -8.7000003,5.3 -4.2,17.3 0.3,25.4 z m 1.3,-14.7 c 0.1,-0.7 0.3,-1.4 0.6,-2 0.4,-0.7 1.1,-1.3 1.8,-1.6 l 0.1,-0.1 h 0.1 l 0.2,-0.1 h 0.2 0.2 c 0.3,0 0.5,-0.1 0.8,-0.1 h 0.2 0.2 c 0.2,0 0.4,0.1 0.6,0.1 0.8,0.2 1.4,0.6 1.9,1 1,0.8 1.7,1.6 2.4,2.5 0.6,0.8 1.2,1.7 1.6,2.6 1.4,2.6 2.4,5.5 3,8.4 0.1,0.4 0.1,0.8 0.2,1 v 0.4 c 0,0 -0.3,-0.4 -0.9,-1.1 -0.5,-0.7 -1.3,-1.7 -2.1,-2.9 -0.9,-1.2 -1.8,-2.6 -2.9,-4 -0.5,-0.7 -1.1,-1.4 -1.7,-2.1 -0.5,-0.6 -1.1,-1.2 -1.8,-1.7 -0.2,-0.2 -0.5,-0.3 -0.7,-0.4 0,0 -0.1,0 -0.1,0 v 0 0 c 0,0 0,0 0.1,0 0,0 0.1,0 0,0 h -0.2 -0.1 c -0.1,0 -0.2,0.1 -0.3,0.2 -0.1,0.2 -0.2,0.4 -0.3,0.6 -0.2,0.7 -0.2,1.4 -0.1,2.2 0.1,0.8 0.2,1.5 0.3,2.2 0.2,1.4 0.5,2.6 0.7,3.5 0.2,0.9 0.3,1.4 0.3,1.4 0,0 -0.1,-0.1 -0.3,-0.3 -0.2,-0.2 -0.4,-0.4 -0.7,-0.8 -0.8,-1 -1.4,-2 -2,-3.2 -0.4,-0.8 -0.7,-1.6 -1,-2.4 -0.3,-1.2 -0.4,-2.2 -0.3,-3.3 z m 2.8,-14.5 v 1.8 z"
   id="path21" />
<path
   class="st3"
   d="m 139.05732,40.782467 c 0.4,0 0.7,0 1.1,0.1 2.7,0.6 4.5,3.1 5.1,6.7 5.1,-7.1 10.6,-10.7 16.5,-10.7 2.5,0 4.7,0.6 6.5,1.7 3.1,-3.8 5.1,-6.4 5.1,-6.4 -2.3,0.4 -7.2,1.1 -7.2,1.1 18.5,-6.8 17,-25.3000001 17,-25.3000001 0,3.2000001 -9.6,10.8000001 -9.6,10.8000001 0.4,-2.8 -1.1,-6.4 -1.1,-6.4 0.4,3.6 -11.1,13 -11.1,13 0.8,-1.7 0.2,-4.7 0.2,-4.7 -0.6,3.4 -5.7,4.7 -5.7,4.7 3.2,-3.8 9.1,-24.0000001 4.7,-25.30000014 -4.4,-1.29999996 -10.6,13.20000014 -10.6,13.20000014 -0.2,-3.4000001 -2.1,-3.4000001 -2.1,-3.4000001 0.9,10.6000001 -7.7,19.1000001 -7.7,19.1000001 -0.6,-2.1 -4,-3.2 -4,-3.2 1.1,2.4 -0.2,13.1 -0.5,16.2 1,-0.8 2.2,-1.2 3.4,-1.2 z"
   id="path22" />
<path
   d="m 134.55732,61.382467 v 0 c 0.1,0.1 0.2,0.2 0.3,0.3 l 0.1,0.1 0.2,0.1 c 0.2,0.1 0.4,0.1 0.6,0.2 0.1,0 0.2,0 0.4,0 0.7,-0.2 1.3,-0.5 1.8,-1 1.1,-2.6 2.3,-5.1 3.6,-7.5 0.9,-4.8 -0.3,-8.8 -2.1,-9.2 -0.1,0 -0.2,0 -0.3,0 -1.8,0 -4.5,3.2 -5.6,8 -0.8,3.5 -0.4,6.6 0.5,8.3 v 0 c 0.1,0.2 0.3,0.5 0.5,0.7 z"
   id="path23" />
<circle
   transform="rotate(-68.468842)"
   class="st2"
   cx="10.713748"
   cy="169.75273"
   id="ellipse23"
   r="0"
   style="stroke-width:0.999981" />
<path
   class="st2"
   d="m 161.85732,52.382467 v 0 0 0 0 z"
   id="path24" />
<path
   class="st2"
   d="m 161.65732,40.482467 c -10.5,0 -18.3,15.9 -22.3,26.6 -1.1,2.8 -2,5.7 -2.9,8.6 0.5,0.1 1,0.3 1.5,0.5 6.1,-1.8 14.1,-2.3 20.1,-2.3 5.1,0 8.8,0.3 8.8,0.3 1.5,-2.1 10.8,-33.7 -5.2,-33.7 z m 3.7,13 c -0.1,1.1 -0.4,2.2 -0.8,3.2 -0.3,0.9 -0.7,1.7 -1.2,2.5 -0.7,1.2 -1.4,2.3 -2.3,3.4 -0.6,0.8 -1,1.2 -1,1.2 0,0 0.1,-0.5 0.4,-1.5 0.2,-0.9 0.6,-2.3 1,-3.8 0.2,-0.8 0.4,-1.6 0.5,-2.5 0.1,-0.9 0.2,-1.8 0.2,-2.6 0,-0.3 -0.1,-0.6 -0.2,-0.9 0,0 0,-0.1 -0.1,-0.1 v 0 0 l -0.1,-0.1 -0.5,-0.1 c -0.2,-0.1 -0.4,-0.1 -0.6,-0.1 -0.2,0 -0.4,0 -0.5,0 -0.2,0 -0.4,0 -0.5,0.1 -0.8,0.2 -1.5,0.5 -2.1,1 -0.7,0.5 -1.3,1.2 -1.9,1.9 -1.2,1.4 -2.2,3 -3,4.4 -0.8,1.4 -1.5,2.6 -1.9,3.4 l -0.7,1.3 c 0,0 0,-0.1 0,-0.4 0,-0.3 0,-0.7 0.1,-1.1 0.1,-1 0.3,-2.4 0.7,-4 0.4,-1.6 1.1,-3.5 2.3,-5.4 0.6,-0.9 1.3,-1.9 2.3,-2.7 1,-0.8 2.3,-1.5 3.7,-1.8 0.4,0 0.7,-0.1 1.1,-0.1 0.4,0 0.7,0 1.1,0.1 0.3,0.1 0.7,0.1 1,0.2 l 0.5,0.2 0.2,0.1 v 0 0 l 0.2,0.1 v 0 h 0.1 c 0.1,0 0.9,0.5 1.2,0.9 l 0.2,0.3 0.2,0.3 c 0.1,0.2 0.2,0.4 0.3,0.6 0.1,0.6 0.1,1.3 0.1,2 z"
   id="path25" />
<path
   d="m 105.35732,111.08247 c 1.7,0 3.6,-0.5 5.6,-1.4 4.2,-1.9 14.4,-12.200003 26.1,-26.200003 0.9,-1 0.7,-2.6 -0.3,-3.5 0,0 0,0 0,0 -1.1,-0.9 -2.6,-0.7 -3.5,0.3 -5.1,6.1 -19.3,22.500003 -24.2,24.800003 h -0.1 c -0.8,0.4 -1.7,0.7 -2.6,0.8 l -1.9,0.3 -1.4,-1.3 c -0.8,-0.8 -2.1,-0.9 -3.1,-0.3 -1.2,0.7 -1.5,2.3 -0.8,3.4 0,0 0,0 0,0 0.3,0.5 2.1,3.1 6.2,3.1 z m -23.7,0.6 c -0.4,0 -0.8,0.1 -1.2,0.3 l -0.7,0.4 h -0.8 c -0.2,0 -0.4,0 -0.6,0 -2.3,0 -8.1,-0.7 -20.3,-5.7 -13.5,-5.4 -18.8,-6.3 -20.8,-6.3 -0.2,0 -0.5,0 -0.7,0 -1.4,0.2 -2.3,1.5 -2,2.9 0,0 0,0 0,0 0.2,1.2 1.3,2.1 2.6,2.1 h 0.3 0.3 c 1.5,0.1 6.3,0.9 18.5,5.9 9.9,4 17.4,6 22.2,6 2.6,0 4.3,-0.5 5.2,-1.6 0.9,-1 0.7,-2.6 -0.3,-3.5 0,0 0,0 0,0 -0.6,-0.3 -1.2,-0.5 -1.7,-0.5 z"
   id="path26" />
<path
   class="st3"
   d="m 115.45732,163.78247 c 0,0 -0.7,8.3 -12.3,10 -1.9,0.3 -3.8,0.4 -5.7,0.5 -6.2,0 -8.6,-2 -10,-3.8 0,0 -11.1,3.8 -12,10.1 -0.6,4.8 4,7.2 8,7.2 1.4,0 2.7,-0.3 3.7,-0.8 4,-2.2 10.1,-7.1 18.2,-8.2 0.7,-0.1 1.7,-0.1 2.9,-0.1 2.8,0 6.5,0.2 10.2,0.2 4.2,0 8.2,-0.2 10.4,-1.2 5,-2.2 5,-6.1 4.7,-8 -0.5,-2.2 -5.6,-5.8 -18.1,-5.9 z"
   id="path27" />

</svg>
