<svg width="251" height="258" viewBox="0 0 251 258" fill="none" xmlns="http://www.w3.org/2000/svg">
<path d="M34.7 189.72V184.9H30.28V189.72H28V178.13H30.25V183H34.7V178.14H37V189.73L34.7 189.72ZM45.22 189.72H43.43L43.27 189.16C42.4919 189.642 41.5952 189.898 40.68 189.9C39.09 189.9 38.41 188.85 38.41 187.4C38.41 185.7 39.18 185.05 40.95 185.05H43V184.17C43 183.25 42.73 182.92 41.34 182.92C40.5267 182.926 39.7161 183.013 38.92 183.18L38.65 181.58C39.6294 181.323 40.6375 181.192 41.65 181.19C44.39 181.19 45.19 182.11 45.19 184.19L45.22 189.72ZM43 186.56H41.43C40.72 186.56 40.52 186.75 40.52 187.39C40.52 188.03 40.72 188.23 41.4 188.23C41.9597 188.214 42.5078 188.067 43 187.8V186.56ZM49.76 189.89C48.7421 189.876 47.7316 189.714 46.76 189.41L47.06 187.82C47.9081 188.049 48.7817 188.17 49.66 188.18C50.66 188.18 50.77 187.97 50.77 187.34C50.77 186.71 50.66 186.56 49.25 186.24C47.12 185.74 46.87 185.24 46.87 183.61C46.87 181.98 47.64 181.19 50.12 181.19C51.0013 181.19 51.88 181.287 52.74 181.48L52.52 183.14C51.7272 183 50.9249 182.919 50.12 182.9C49.18 182.9 49.01 183.11 49.01 183.62C49.01 184.29 49.07 184.35 50.25 184.62C52.68 185.24 52.91 185.55 52.91 187.26C52.91 188.97 52.43 189.89 49.8 189.89H49.76ZM59.76 189.72V183.88C59.76 183.44 59.56 183.21 59.06 183.21C58.2642 183.296 57.493 183.537 56.79 183.92V189.72H54.64V178L56.82 178.33V182C57.8124 181.514 58.8957 181.241 60 181.2C61.45 181.2 62 182.2 62 183.67V189.73L59.76 189.72ZM63.76 180.17V178.17H66V180.17H63.76ZM63.76 189.72V181.36H66V189.72H63.76ZM67.69 181.43C67.69 179.33 68.96 178.11 71.93 178.11C73.0211 178.11 74.1085 178.238 75.17 178.49L75 180.36C74.0359 180.186 73.0595 180.089 72.08 180.07C70.53 180.07 70.02 180.58 70.02 181.8V186.2C70.02 187.42 70.53 187.94 72.08 187.94C73.06 187.922 74.0368 187.822 75 187.64L75.25 189.52C74.1881 189.769 73.1007 189.893 72.01 189.89C69.01 189.89 67.77 188.68 67.77 186.58L67.69 181.43ZM80 189.89C77 189.89 76.21 188.31 76.21 186.6V184.48C76.21 182.77 77.01 181.19 80 181.19C82.99 181.19 83.79 182.77 83.79 184.48V186.6C83.82 188.31 83 189.89 80 189.89ZM80 183C78.84 183 78.39 183.5 78.39 184.44V186.7C78.39 187.64 78.84 188.14 80 188.14C81.16 188.14 81.61 187.64 81.61 186.7V184.44C81.64 183.47 81.19 183 80 183ZM89.94 183.14C89.1408 183.489 88.3687 183.897 87.63 184.36V189.75H85.48V181.39H87.32L87.47 182.31C88.184 181.851 88.9535 181.485 89.76 181.22L89.94 183.14ZM98.67 186.97C98.67 188.83 97.81 189.92 95.78 189.92C95.0008 189.914 94.224 189.833 93.46 189.68V193.1L91.28 193.43V181.43H93L93.22 182.13C94.0231 181.56 94.9849 181.255 95.97 181.26C97.72 181.26 98.66 182.26 98.66 184.16L98.67 186.97ZM93.46 187.91C94.0936 188.054 94.7404 188.131 95.39 188.14C96.18 188.14 96.48 187.78 96.48 187.02V184.02C96.48 183.33 96.21 182.95 95.41 182.95C94.6751 182.962 93.9676 183.231 93.41 183.71L93.46 187.91Z" fill="black"/>
<path d="M62.1275 224.81L68.6775 198.17H75.1375L66.6175 232.56H57.8375L51.5375 204.88L45.2375 232.56H36.4575L27.9375 198.17H34.3975L40.9975 224.81L47.2375 198.17H55.9175L62.1275 224.81Z" fill="black"/>
<path d="M94.5489 232.56H89.3889L88.9189 230.86C86.6877 232.305 84.0871 233.076 81.4289 233.08C76.8389 233.08 74.8789 229.93 74.8789 225.59C74.8789 220.48 77.0989 218.52 82.2089 218.52H88.2089V215.88C88.2089 213.09 87.4289 212.11 83.4089 212.11C81.0552 212.133 78.7098 212.394 76.4089 212.89L75.6289 208.09C78.4394 207.309 81.342 206.909 84.2589 206.9C92.1589 206.9 94.4789 209.69 94.4789 215.99L94.5489 232.56ZM88.2489 223.06H83.5989C81.5389 223.06 80.9689 223.63 80.9689 225.54C80.9689 227.29 81.5389 228.07 83.4989 228.07C85.1654 228.046 86.7989 227.602 88.2489 226.78V223.06Z" fill="black"/>
<path d="M112.207 232.56L108.847 242.73H102.847L105.997 232.56H103.777L95.7773 207.41H102.227L107.997 226.52L113.787 207.41H120.237L112.207 232.56Z" fill="black"/>
<path d="M143.129 224.2C143.129 229.77 140.659 233.08 134.819 233.08C132.563 233.059 130.316 232.815 128.109 232.35V242.73L121.809 243.61V207.41H126.809L127.429 209.53C129.724 207.816 132.514 206.893 135.379 206.9C140.439 206.9 143.119 209.9 143.119 215.62L143.129 224.2ZM128.129 227.04C129.958 227.45 131.824 227.674 133.699 227.71C135.979 227.71 136.849 226.62 136.849 224.35V215.47C136.849 213.4 136.079 212.27 133.759 212.27C131.674 212.343 129.681 213.147 128.129 214.54V227.04Z" fill="black"/>
<path d="M157.069 233.08C148.449 233.08 146.129 228.33 146.129 223.16V216.81C146.129 211.65 148.449 206.9 157.069 206.9C165.689 206.9 168.069 211.65 168.069 216.81V223.16C167.999 228.33 165.699 233.08 157.069 233.08ZM157.069 212.27C153.719 212.27 152.429 213.77 152.429 216.6V223.37C152.429 226.21 153.719 227.71 157.069 227.71C160.419 227.71 161.719 226.21 161.719 223.37V216.6C161.719 213.77 160.429 212.27 157.069 212.27Z" fill="black"/>
<path d="M171.836 203.85V196.57H178.136V203.85H171.836ZM171.836 232.56V207.41H178.136V232.56H171.836Z" fill="black"/>
<path d="M198.169 232.56V215C198.169 213.66 197.599 213 196.169 213C193.862 213.261 191.631 213.982 189.609 215.12V232.57H183.309V207.41H188.109L188.729 209.53C191.866 207.962 195.295 207.066 198.799 206.9C202.979 206.9 204.479 209.84 204.479 214.33V232.56H198.169Z" fill="black"/>
<path d="M222.747 232.1C220.969 232.725 219.102 233.062 217.217 233.1C212.627 233.1 210.297 230.93 210.297 226.44V212.44H206.527V207.44H210.297V201.2L216.597 200.32V207.44H223.057L222.637 212.44H216.637V225.61C216.6 225.915 216.634 226.224 216.736 226.514C216.838 226.804 217.005 227.066 217.224 227.281C217.444 227.495 217.71 227.656 218.002 227.752C218.294 227.847 218.603 227.874 218.907 227.83C219.976 227.797 221.035 227.622 222.057 227.31L222.747 232.1Z" fill="black"/>
<path d="M212.831 35.79L191.021 73.56L169.211 35.79H212.831Z" fill="#14C6CB"/>
<path d="M96.388 61H81.838L118.218 124.02L103.668 149.23L38.168 35.79H110.948L147.338 98.81L154.608 86.21L125.498 35.79H154.608L169.168 61L183.718 86.21L147.338 149.23L96.388 61Z" fill="#14C6CB"/>
</svg>